<mxfile host="Electron" modified="2023-06-15T00:48:48.984Z" agent="Mozilla/5.0 (Macintosh; Intel Mac OS X 10_15_7) AppleWebKit/537.36 (KHTML, like Gecko) draw.io/21.4.0 Chrome/112.0.5615.204 Electron/24.5.1 Safari/537.36" etag="9V1m00EkzIt7TjFpqsBS" version="21.4.0" type="device">
  <diagram id="O6TI0YJs0ys1JhMxFfYX" name="Page-1">
    <mxGraphModel dx="1306" dy="894" grid="1" gridSize="10" guides="1" tooltips="1" connect="1" arrows="1" fold="1" page="1" pageScale="1" pageWidth="827" pageHeight="1169" math="1" shadow="0">
      <root>
        <mxCell id="0" />
        <mxCell id="1" parent="0" />
        <mxCell id="CMExe3BI-j4-WCnSLt1g-1" value="&lt;font style=&quot;font-size: 14px;&quot;&gt;$$proto_{JSObject *}$$&lt;/font&gt;" style="rounded=1;whiteSpace=wrap;html=1;fillColor=#d5e8d4;strokeColor=#82b366;arcSize=5;" parent="1" vertex="1">
          <mxGeometry x="120" y="160" width="150" height="40" as="geometry" />
        </mxCell>
        <mxCell id="CMExe3BI-j4-WCnSLt1g-3" value="&lt;font style=&quot;font-size: 14px;&quot;&gt;$$hash_{uint32}$$&lt;/font&gt;" style="rounded=1;whiteSpace=wrap;html=1;fillColor=#dae8fc;strokeColor=#6c8ebf;arcSize=5;" parent="1" vertex="1">
          <mxGeometry x="480" y="160" width="120" height="40" as="geometry" />
        </mxCell>
        <mxCell id="CMExe3BI-j4-WCnSLt1g-4" value="" style="endArrow=classic;html=1;rounded=0;fontSize=14;exitX=1;exitY=0.5;exitDx=0;exitDy=0;" parent="1" source="CMExe3BI-j4-WCnSLt1g-1" target="CMExe3BI-j4-WCnSLt1g-3" edge="1">
          <mxGeometry width="50" height="50" relative="1" as="geometry">
            <mxPoint x="240" y="460" as="sourcePoint" />
            <mxPoint x="290" y="410" as="targetPoint" />
          </mxGeometry>
        </mxCell>
        <mxCell id="CMExe3BI-j4-WCnSLt1g-5" value="shape_initial_hash" style="text;html=1;strokeColor=none;fillColor=none;align=center;verticalAlign=middle;whiteSpace=wrap;rounded=0;fontSize=14;fontFamily=SF Mono;" parent="1" vertex="1">
          <mxGeometry x="300" y="150" width="160" height="30" as="geometry" />
        </mxCell>
        <mxCell id="CMExe3BI-j4-WCnSLt1g-6" value="" style="endArrow=classic;html=1;rounded=0;fontSize=14;exitX=0.5;exitY=1;exitDx=0;exitDy=0;entryX=0.5;entryY=0;entryDx=0;entryDy=0;" parent="1" source="CMExe3BI-j4-WCnSLt1g-3" target="CMExe3BI-j4-WCnSLt1g-8" edge="1">
          <mxGeometry width="50" height="50" relative="1" as="geometry">
            <mxPoint x="710" y="450" as="sourcePoint" />
            <mxPoint x="540" y="340" as="targetPoint" />
          </mxGeometry>
        </mxCell>
        <mxCell id="CMExe3BI-j4-WCnSLt1g-7" value="$$mask(hash_{uint32},&lt;br&gt;rt \rightarrow shape\_hash\_bits)$$" style="text;html=1;strokeColor=none;fillColor=none;align=center;verticalAlign=middle;whiteSpace=wrap;rounded=0;fontSize=14;" parent="1" vertex="1">
          <mxGeometry x="225" y="250" width="310" height="30" as="geometry" />
        </mxCell>
        <mxCell id="CMExe3BI-j4-WCnSLt1g-8" value="$$hash&#39;$$" style="text;html=1;strokeColor=none;fillColor=none;align=center;verticalAlign=middle;whiteSpace=wrap;rounded=0;fontSize=14;fontFamily=SF Mono;" parent="1" vertex="1">
          <mxGeometry x="510" y="310" width="60" height="30" as="geometry" />
        </mxCell>
        <mxCell id="CMExe3BI-j4-WCnSLt1g-9" value="" style="rounded=1;whiteSpace=wrap;html=1;fontSize=16;fillColor=#ffe6cc;strokeColor=#d79b00;arcSize=5;" parent="1" vertex="1">
          <mxGeometry x="400" y="480" width="40" height="40" as="geometry" />
        </mxCell>
        <mxCell id="CMExe3BI-j4-WCnSLt1g-10" value="" style="rounded=0;whiteSpace=wrap;html=1;fontSize=16;fillColor=#ffe6cc;strokeColor=#d79b00;" parent="1" vertex="1">
          <mxGeometry x="440" y="480" width="40" height="40" as="geometry" />
        </mxCell>
        <mxCell id="CMExe3BI-j4-WCnSLt1g-11" value="" style="rounded=0;whiteSpace=wrap;html=1;fontSize=16;fillColor=#ffe6cc;strokeColor=#d79b00;" parent="1" vertex="1">
          <mxGeometry x="480" y="480" width="40" height="40" as="geometry" />
        </mxCell>
        <mxCell id="CMExe3BI-j4-WCnSLt1g-12" value="" style="rounded=0;whiteSpace=wrap;html=1;fontSize=16;fillColor=#ffe6cc;strokeColor=#d79b00;" parent="1" vertex="1">
          <mxGeometry x="520" y="480" width="40" height="40" as="geometry" />
        </mxCell>
        <mxCell id="CMExe3BI-j4-WCnSLt1g-13" value="" style="rounded=1;whiteSpace=wrap;html=1;fontSize=16;fillColor=#ffe6cc;strokeColor=#d79b00;arcSize=5;" parent="1" vertex="1">
          <mxGeometry x="560" y="480" width="40" height="40" as="geometry" />
        </mxCell>
        <mxCell id="CMExe3BI-j4-WCnSLt1g-14" value="" style="endArrow=classic;html=1;rounded=0;fontSize=14;exitX=0.5;exitY=1;exitDx=0;exitDy=0;entryX=0.5;entryY=0;entryDx=0;entryDy=0;" parent="1" source="CMExe3BI-j4-WCnSLt1g-8" target="CMExe3BI-j4-WCnSLt1g-10" edge="1">
          <mxGeometry width="50" height="50" relative="1" as="geometry">
            <mxPoint x="540" y="390" as="sourcePoint" />
            <mxPoint x="440" y="630" as="targetPoint" />
            <Array as="points">
              <mxPoint x="540" y="400" />
              <mxPoint x="460" y="400" />
            </Array>
          </mxGeometry>
        </mxCell>
        <mxCell id="CMExe3BI-j4-WCnSLt1g-17" value="$$rt \rightarrow shape\_hash$$" style="text;html=1;strokeColor=none;fillColor=none;align=center;verticalAlign=middle;whiteSpace=wrap;rounded=0;fontSize=14;" parent="1" vertex="1">
          <mxGeometry x="247" y="485" width="160" height="30" as="geometry" />
        </mxCell>
        <mxCell id="CMExe3BI-j4-WCnSLt1g-18" value="" style="rounded=1;whiteSpace=wrap;html=1;fontSize=16;fillColor=#fff2cc;strokeColor=#d6b656;arcSize=5;" parent="1" vertex="1">
          <mxGeometry x="440" y="586.5" width="40" height="40" as="geometry" />
        </mxCell>
        <mxCell id="CMExe3BI-j4-WCnSLt1g-19" value="" style="rounded=1;whiteSpace=wrap;html=1;fontSize=16;fillColor=#fff2cc;strokeColor=#d6b656;arcSize=5;" parent="1" vertex="1">
          <mxGeometry x="440" y="680" width="40" height="40" as="geometry" />
        </mxCell>
        <mxCell id="CMExe3BI-j4-WCnSLt1g-20" value="" style="rounded=1;whiteSpace=wrap;html=1;fontSize=16;fillColor=#fff2cc;strokeColor=#d6b656;arcSize=5;" parent="1" vertex="1">
          <mxGeometry x="440" y="770" width="40" height="40" as="geometry" />
        </mxCell>
        <mxCell id="CMExe3BI-j4-WCnSLt1g-21" value="" style="endArrow=classic;html=1;rounded=0;fontSize=14;exitX=0.5;exitY=1;exitDx=0;exitDy=0;entryX=0.5;entryY=0;entryDx=0;entryDy=0;" parent="1" source="CMExe3BI-j4-WCnSLt1g-10" target="CMExe3BI-j4-WCnSLt1g-18" edge="1">
          <mxGeometry width="50" height="50" relative="1" as="geometry">
            <mxPoint x="430" y="600" as="sourcePoint" />
            <mxPoint x="440" y="610" as="targetPoint" />
          </mxGeometry>
        </mxCell>
        <mxCell id="CMExe3BI-j4-WCnSLt1g-23" value="" style="endArrow=classic;html=1;rounded=0;fontSize=14;exitX=0.5;exitY=1;exitDx=0;exitDy=0;entryX=0.5;entryY=0;entryDx=0;entryDy=0;" parent="1" source="CMExe3BI-j4-WCnSLt1g-18" target="CMExe3BI-j4-WCnSLt1g-19" edge="1">
          <mxGeometry width="50" height="50" relative="1" as="geometry">
            <mxPoint x="470" y="530" as="sourcePoint" />
            <mxPoint x="470" y="570" as="targetPoint" />
          </mxGeometry>
        </mxCell>
        <mxCell id="CMExe3BI-j4-WCnSLt1g-24" value="" style="endArrow=classic;html=1;rounded=0;fontSize=14;exitX=0.5;exitY=1;exitDx=0;exitDy=0;entryX=0.5;entryY=0;entryDx=0;entryDy=0;" parent="1" source="CMExe3BI-j4-WCnSLt1g-19" target="CMExe3BI-j4-WCnSLt1g-20" edge="1">
          <mxGeometry width="50" height="50" relative="1" as="geometry">
            <mxPoint x="470" y="610" as="sourcePoint" />
            <mxPoint x="470" y="640" as="targetPoint" />
          </mxGeometry>
        </mxCell>
        <mxCell id="CMExe3BI-j4-WCnSLt1g-26" value="" style="shape=curlyBracket;whiteSpace=wrap;html=1;rounded=1;fontSize=14;" parent="1" vertex="1">
          <mxGeometry x="401" y="483" width="30" height="327" as="geometry" />
        </mxCell>
        <mxCell id="CMExe3BI-j4-WCnSLt1g-27" value="butcket" style="text;html=1;strokeColor=none;fillColor=none;align=center;verticalAlign=middle;whiteSpace=wrap;rounded=0;fontSize=14;fontFamily=SF Mono;" parent="1" vertex="1">
          <mxGeometry x="304" y="631.5" width="110" height="30" as="geometry" />
        </mxCell>
        <mxCell id="CMExe3BI-j4-WCnSLt1g-28" value="shape_hash_next" style="text;html=1;strokeColor=none;fillColor=none;align=center;verticalAlign=middle;whiteSpace=wrap;rounded=0;fontSize=14;fontFamily=SF Mono;" parent="1" vertex="1">
          <mxGeometry x="450" y="638" width="163" height="30" as="geometry" />
        </mxCell>
        <mxCell id="CMExe3BI-j4-WCnSLt1g-31" value="JSShape" style="text;html=1;strokeColor=none;fillColor=none;align=center;verticalAlign=middle;whiteSpace=wrap;rounded=0;fontSize=14;fontFamily=SF Mono;" parent="1" vertex="1">
          <mxGeometry x="490" y="591.5" width="60" height="30" as="geometry" />
        </mxCell>
        <mxCell id="CMExe3BI-j4-WCnSLt1g-29" value="JSShape*" style="text;html=1;strokeColor=none;fillColor=none;align=center;verticalAlign=middle;whiteSpace=wrap;rounded=0;fontSize=14;fontFamily=SF Mono;" parent="1" vertex="1">
          <mxGeometry x="450" y="530" width="100" height="30" as="geometry" />
        </mxCell>
      </root>
    </mxGraphModel>
  </diagram>
</mxfile>
